<?xml version="1.0" encoding="utf-8"?>
<!-- Generator: Adobe Illustrator 15.1.0, SVG Export Plug-In . SVG Version: 6.00 Build 0)  -->
<!DOCTYPE svg PUBLIC "-//W3C//DTD SVG 1.1//EN" "http://www.w3.org/Graphics/SVG/1.1/DTD/svg11.dtd">
<svg version="1.1" id="圖層_1" xmlns="http://www.w3.org/2000/svg" xmlns:xlink="http://www.w3.org/1999/xlink" x="0px" y="0px"
	 width="581.433px" height="462.245px" viewBox="0 0 581.433 462.245" enable-background="new 0 0 581.433 462.245"
	 xml:space="preserve">
<g>
	<g>
		<path stroke="#000000" stroke-miterlimit="10" d="M124.265,139.697c6.035-7.246,16.9-13.281,25.353-19.318
			c16.901-3.619,31.39-15.693,43.462-27.764c6.037-2.418,4.829-9.656,12.074-12.074c-1.208-6.035,6.036-9.656,4.827-16.9
			c2.417-9.662,1.208-22.938-4.827-32.598c-14.49-12.073-31.39-18.109-51.916-16.9c-3.62-1.209-7.24-2.417-8.447,1.208l7.244,8.446
			c-1.208,7.246,4.829,16.906-1.208,24.146c1.208,6.035-1.209,16.906,0,24.145c2.411,8.452-4.829,12.071-10.865,15.697
			c0,13.281-13.281,18.11-13.281,30.181c-10.863,9.657-14.49,24.146-19.316,35.011C110.983,148.149,120.645,148.149,124.265,139.697
			z"/>
		<path stroke="#000000" stroke-miterlimit="10" d="M288.453,159.014c-1.209-13.281,10.864-22.936,7.244-37.427
			c3.62-20.52-2.417-42.253-10.864-60.361c-6.037-4.829-7.246-12.073-12.072-18.11c0,13.281,0,26.563-2.417,39.844
			c-3.619,3.619-3.619,7.238-3.619,10.864c-3.625,8.447-4.834,18.109-8.454,25.354c-1.208,13.275-3.619,28.973-12.072,39.838
			c2.417,8.453-6.037,12.072-3.619,19.316c-6.037,3.62-3.625,10.864-8.454,15.693c-3.619,10.863-8.453,22.937-15.691,32.598
			c-4.834,14.485-18.109,25.355-26.562,37.427c1.207,2.41-3.62,2.41-1.209,4.828l2.416-3.626c4.829-1.202,9.656-6.037,14.484-2.411
			c9.662-13.28,27.771-19.317,37.426-33.807c22.938-14.483,26.562-39.838,41.047-61.565
			C287.244,165.05,284.833,161.431,288.453,159.014z"/>
		<path stroke="#000000" stroke-miterlimit="10" d="M383.825,127.624c9.661,4.828,22.937-1.208,33.808,6.037
			c2.41,2.417,0,6.037,0,8.453c-7.246,4.828-10.871,15.692-19.318,19.317c-1.208,7.239-10.863,6.037-9.662,13.275
			c6.037-8.447,16.907-1.201,24.146-8.447c12.073,1.209,21.734-6.036,33.808-4.828c28.973-6.037,62.778-7.245,78.47-33.807
			c-1.214-4.828-2.416-9.657-6.035-13.282c-6.037-2.411-14.49-1.202-20.525-2.411c-14.484-9.662-31.391-2.417-48.29-8.453
			c-10.864,7.245-24.146,12.073-36.218,16.901c-12.073,0-22.938,3.625-33.801,3.625c-3.626,1.208-8.454,1.208-8.454,4.828
			C375.377,130.041,378.997,126.416,383.825,127.624z"/>
		<path stroke="#000000" stroke-miterlimit="10" d="M369.342,126.416c-1.091,0-1.875,0.023-2.589,0.135
			C367.686,126.698,368.617,126.776,369.342,126.416z"/>
		<path stroke="#000000" stroke-miterlimit="10" d="M364.508,128.833v-1.208c0.667-0.667,1.386-0.937,2.245-1.073
			c-2.175-0.342-4.297-1.103-3.447,2.282H364.508z"/>
		<path stroke="#000000" stroke-miterlimit="10" d="M416.424,261.632c-2.417-3.619-2.417-8.454-7.246-12.072
			c0-6.037,8.455-7.245,12.074-12.072c8.453-12.075,24.145-20.527,24.145-37.428c-2.417-1.208-3.619-6.035-6.036-7.244
			c-8.452-7.239-19.317-10.864-30.183-8.447c-14.488-6.037-20.525,9.656-31.39,14.483c-12.071,4.834-22.937,12.073-35.009,15.698
			c-4.828-2.417-7.244-9.662-9.655-14.49c0-9.654-6.036-18.108-8.454-26.555l-1.208,6.035c-12.072,16.9-10.864,41.047-15.692,61.567
			c1.209,12.071-6.035,22.942-9.661,35.015c1.209,7.238-1.203,15.692-3.62,21.729c-1.208,9.655,6.037,20.526,13.281,26.563
			c3.62,2.41,4.828,0,9.656,0c6.036-1.209,4.828-7.245,6.036-12.072c1.208-8.454,10.864-9.663,15.698-13.281
			c7.239,0,15.691-8.453,21.729-1.209c-8.453,20.526-20.526,42.254-33.801,61.571c-8.454,3.62-10.87,12.073-14.49,19.318
			c-10.863,4.827-20.525,16.899-30.181,26.556c2.417,0,4.827,0,7.245-1.209c7.243-4.827,15.69-9.656,20.519-18.108
			c12.073-3.62,13.281-15.692,24.146-20.52c7.244-6.037,12.073-12.073,18.109-19.317c7.244-8.455,14.489-20.525,25.353-25.355
			c6.037-9.654,12.073-19.315,16.901-30.18C393.486,273.705,414.007,276.121,416.424,261.632z M350.025,264.049
			c-3.626,6.036-10.865,10.864-15.699,13.275c-6.037-4.828,0-10.865-1.202-15.692c4.827-10.864,0-24.145,7.238-35.01
			c10.87-2.416,21.734-1.209,32.599-8.453c1.209,1.208,3.619,3.626,3.619,7.244C369.342,238.695,363.306,254.388,350.025,264.049z"
			/>
		<path stroke="#000000" stroke-miterlimit="10" d="M212.397,302.677c-4.833-8.447,0-18.108-4.833-26.556h-1.203
			c3.619,8.447-9.662,13.275-1.208,19.312c-8.454,16.907-9.662,37.427-13.281,54.327c-7.245,4.834-2.418,14.489-7.245,20.525
			c-1.208,12.072-3.62,24.145-9.656,33.801c-6.037,3.625-7.245,14.489-14.49,12.071c-8.448-10.862-14.484-24.144-13.281-37.418
			c4.833-16.907,0-35.016,2.417-53.124c7.245-2.412,1.209-10.865,6.036-15.693c-1.208-13.281,7.245-21.727,9.656-33.801
			c6.037-2.416,1.209-8.453,7.245-10.87c2.417-19.313,16.9-28.974,25.354-45.875c4.828-3.619,4.828-12.071,6.037-18.108
			c-2.417-10.863-16.901-7.244-19.317-16.9h-7.246c-10.863-8.453-21.728,2.412-32.592,3.619c-3.625,0-6.037,6.037-10.864,4.828
			c-7.246,6.036-16.906,7.244-26.562,12.072c-8.453-2.411-10.864,10.87-20.525,7.245c-13.275,7.244-28.974,10.864-44.666,15.698
			c-10.865,4.828-19.317,9.657-30.182,10.865c-2.417,1.209-6.036,2.411-4.828,4.827c6.037,2.416,10.865-1.208,16.9,3.62
			c6.037-3.62,9.656,3.625,16.9,1.208c6.037,4.827,10.865-1.208,18.109,2.417c8.454-3.625,18.11,2.41,25.354-4.829
			c8.447-4.832,18.109-7.243,26.555-13.28c9.662-3.625,19.317-9.662,27.771-14.49c10.864-1.208,18.109-12.073,28.973-8.447
			c3.62,8.447-6.036,10.865-2.417,18.109c-4.828,3.619-2.411,9.657-6.037,13.276c1.209,10.87-9.655,20.525-6.036,32.599
			c-3.62,7.243-4.828,18.108-8.447,25.354c-4.828,7.244,1.208,15.691-3.625,22.937c0,12.071,0,21.729-1.203,33.802
			c-6.036,4.832-1.208,13.281-2.417,20.525c-3.619,8.452-1.208,19.316-2.417,30.182c2.417,18.108,15.698,36.217,32.598,39.835
			c7.245,6.037,16.901,1.204,25.353,0c10.865-4.833,10.865-18.108,13.282-28.972c9.656-6.036,1.203-15.692,4.828-24.145
			c4.828-9.656-1.208-18.109,4.828-28.974c0-1.208-1.209-3.62,0-4.828C213.601,342.521,208.772,321.995,212.397,302.677z"/>
		<path stroke="#000000" stroke-miterlimit="10" d="M573.367,384.774c-13.288-8.452-20.525-20.525-32.6-30.181
			c0-4.834-4.833-6.037-8.44-7.246c-2.429,3.62,1.202,6.037,2.404,8.449c2.417,7.244-1.202,14.488,4.835,20.525
			c1.201,8.452,1.201,18.107,0,26.563c-8.453,16.9-31.386,18.108-45.887,25.346v-2.411c-15.687-2.415-32.592-3.625-48.283,0
			c-3.619-4.826-10.864,1.21-14.488-4.826c-7.24,0-13.275-4.836-20.521-6.038c-6.036-7.244-14.488-14.487-13.28-24.145
			c-3.62-9.661,0-16.906-1.208-27.77c3.624-3.62,4.828-9.656,8.452-13.281c-2.417-7.238,7.245-12.074,3.62-20.521
			c-3.62-3.624-7.244-8.454-13.281-9.661c-3.62,3.625-10.864,1.207-12.072,6.037c12.072,10.869,8.452,27.77,7.244,41.051
			c3.625,4.828-1.209,8.447,1.208,12.073c-6.036,7.238,0,15.69-2.417,22.936c0,7.245,3.626,12.073,8.454,15.692
			c1.208,6.037,10.864,8.452,14.489,13.281c10.863,1.208,19.313,7.249,28.974,1.208c2.41,3.618,9.655,1.209,12.071,6.041
			c7.246-1.213,14.483,3.608,21.729,1.203c8.453,7.238,13.274-4.833,20.526-4.833c2.416-3.619,6.035-4.828,9.654-7.238
			c4.834,2.41,0,7.238,1.203,9.655c7.25,0,12.072,1.213,19.322,1.213c6.038-8.458,16.896-4.832,25.36-8.458
			c3.607-1.209,9.644-3.62,13.275-3.62C579.403,418.575,573.367,398.05,573.367,384.774z"/>
		<path stroke="#000000" stroke-miterlimit="10" d="M276.38,408.92c3.089,3.089,2.688-0.837,4.751-2.057
			C278.886,407.346,276.38,406.898,276.38,408.92z"/>
		<path stroke="#000000" stroke-miterlimit="10" d="M281.131,406.863c0.437-0.095,0.89-0.16,1.286-0.359
			C281.885,406.504,281.485,406.656,281.131,406.863z"/>
	</g>
	<g>
		<path stroke="#000000" stroke-miterlimit="10" d="M533.756,369.254c-1.418-0.945-2.131-2.129-3.313-3.073
			c-1.653-0.948-3.313-2.604-4.967-3.549c-0.474-1.422-2.366-1.422-3.078-2.604c-0.945,0-1.419-1.892-2.603-1.183
			c-0.709-0.709-1.418-2.128-2.601-2.128c-0.235-0.712-0.948-0.947-1.657-1.184c-2.365-2.604-5.205-3.787-7.807-6.152
			c-0.712-0.945-0.474-2.128-0.236-3.076c1.184-1.656,1.655-3.783,2.366-5.205c1.184-3.787,2.602-8.043,4.731-11.356
			c2.129-3.549,3.55-7.81,5.677-11.594c0.946-1.419,0.238-2.838-0.474-4.021c-1.418-0.712-2.13-2.366-3.784-2.366
			c-0.712-1.421-2.13-0.712-3.549-0.712c-1.656,1.184-3.784,0.235-5.443,1.657c-1.655,0-3.549,2.365-4.968,0.238
			c1.184-0.947-0.471-2.131,0-3.078c0-1.418-1.654-1.653-2.602-2.602c-2.365-0.474-4.731-0.474-7.098,0
			c-2.367,0.948-3.55,3.313-5.68,4.258c-2.13,2.366-4.967,3.312-7.098,5.441c-1.654,0.236-1.654,2.84-3.549,2.131
			c-0.947,1.419-2.838,1.654-3.313,3.549c-0.235,1.419-1.654,0.71-2.603,1.184c-0.471-0.474-0.709-0.947-0.709-1.657
			c1.422-0.945,0.709-2.604,1.893-3.549c0.236-2.366,1.657-4.023,2.367-6.389c0.946-0.948,0.235-1.893,0-3.075
			c-1.42-2.128-3.077-2.604-4.733-4.495c0.236-1.658,2.366-1.894,3.55-2.604c1.184-0.474,2.13-1.421,3.313-1.421
			c0.948-1.418,2.838-0.945,3.785-2.602c2.84,0,5.205-2.131,8.281-0.947c2.129-0.472,3.313,2.131,5.68,1.184
			c1.892-0.945,4.258-0.236,5.914-2.129c1.654-0.709,3.075-1.892,4.731-2.128c1.42-0.476,3.076-0.237,4.26-1.183
			c1.42-0.237,2.127-1.659,3.31-2.366c0.478-0.947,0.948-1.894,0.238-2.842c-0.709-0.945-1.421-2.128-2.128-2.603
			c-1.894-2.129-5.443-2.601-6.391-5.44c0.476-0.709,0.711-1.183,1.184-1.656c1.42-0.473,2.365-2.129,4.024-2.129
			c0.472-1.184,1.89-0.473,2.366-1.656c3.784-0.473,4.967-4.732,7.098-7.335c0.235-1.42,0.235-2.365,0.708-3.785
			c-1.42-0.474-0.237-2.129-1.655-2.603c0-1.184-1.896-1.42-2.131-2.603c-0.947-0.71-2.13-0.474-2.602-1.656
			c-1.895,0.236-3.313-1.42-4.495-0.946c-0.473-0.947-1.42,0.709-1.655-0.474l-0.711,1.183c-0.71,0.474-1.655-0.236-2.131-0.236
			c-1.89,0.236-3.55,0.71-5.203,1.42c-3.078,0.946-6.862,1.42-9.7,3.549c-1.421,0.474-3.078-0.236-4.024,1.183
			c-5.915,1.893-12.065,3.549-17.745,5.678c-1.419,0.237-2.602,0.237-3.784,1.184c-1.184,0-1.893,0.946-3.075,0.71
			c-2.129,0.473-3.787,1.419-5.916,1.656c-2.84,1.42-6.388,1.42-9.463,2.366l-0.238-0.236c-1.654,0.71-4.021,0-6.151,0.236
			c-1.418,0.237-3.075-0.473-4.496-0.473c1.183,3.313,4.733,4.495,5.915,7.807c1.184,1.657,1.659,3.786,3.314,5.205
			c0.71,0,1.418,0.474,2.13,1.185c4.02,0.709,7.807,0.709,12.065,1.419c2.13-0.473,4.022-0.948,5.68-2.604
			c1.418,0,2.601-1.419,3.783-1.656c2.131-1.42,4.497-2.365,6.627-4.022c0.473-1.418,2.366-0.946,3.073-2.365
			c0.712,0,1.183-0.946,1.896-0.71c1.183-1.656,2.836-1.656,3.784-3.075c2.13-1.656,4.968-2.603,7.099-4.732
			c2.839-0.71,4.496-2.839,7.097-3.785c1.184-2.129,3.784-1.42,5.444-2.366c0.944-0.236,1.418,0.473,2.127,0.946
			c-0.237,1.42-1.183,3.075-2.127,4.259c-2.604,3.313-5.209,7.098-9.229,8.991c-3.313,4.021-7.334,5.914-11.595,8.517
			c-1.892,0.474-3.784,1.42-5.203,2.839c0.235,0.475,0.472,1.421,0,2.13c-0.711,0.474-0.947-0.947-1.658-1.183
			c-2.366,0.711-4.495,1.895-6.622,3.313c-2.131,0-3.078,2.13-4.971,2.365c-0.944,1.418-2.839,0.709-3.786,1.893
			c-4.021,0.945-7.57,3.311-11.354,4.493c-1.66,0.948-3.314,2.132-5.209,1.896c-2.838,2.13-2.838,5.68-3.548,8.752
			c0.236,1.183-0.473,3.313,1.419,3.787c1.184,0,2.841,0.474,3.551-0.71c2.127-0.474,3.787-1.895,5.914-2.13
			c0.944-1.418,2.366-1.654,3.787-2.837c1.891-0.238,3.549-2.13,5.204-1.659c0.946,6.152-5.204,8.992-8.991,12.541
			c-2.127,0-2.84,2.603-4.97,2.367c-1.891,1.653-4.495,1.183-6.151,3.313c-1.892,0-3.784,0.472-5.44,1.184
			c-1.657,1.418-3.549,0-5.915,0.471c-0.71,1.183-1.656-0.471-2.84,0.235c-0.473,0-1.183,0.477-0.71,1.184
			c2.13,1.183,4.023,3.313,6.39,3.786c1.418-0.237,2.837,0.71,4.02,1.421c3.787-0.238,7.336,0,10.886,0.236
			c1.421,1.419,3.549,1.183,4.258,2.838c-0.236,2.604-2.837,3.786-4.021,5.914c-1.658,0.947-2.604,2.604-2.842,4.496
			c-1.419,2.367-3.312,3.785-4.968,5.916c-0.948,1.183-1.893,2.601-2.602,4.022c-1.656,1.421-2.365,3.311-3.549,4.97
			c-3.077,3.549-6.152,7.569-7.572,12.301c-0.946,1.896,1.42,1.896,1.184,3.549c0.71,0.237,1.183,1.896,1.893,1.183
			c0,0.237,0.235,0.475,0,0.948c0.947-0.235,1.894,0.71,2.602,0.947c2.13,1.419,4.261,2.602,6.391,3.312
			c0.471,1.183,1.891,1.421,2.837,1.893c0.474-0.71,1.419,0.474,1.895-0.236c0.235-0.235,0.945-0.712,0.945,0
			c0.71,0.236,0.945-0.474,1.421-0.712c1.419,0.238,2.366-1.183,3.312-1.183c1.183-1.418,2.128-2.837,3.787-3.311
			c1.418-1.658,1.183-4.023,2.602-5.678c0-1.421,0.947-2.365,0.709-3.786c0.238-1.184,1.183-1.657,2.604-1.422
			c0.945-0.471,2.129-0.471,3.074,0c1.421-0.707,2.604-0.235,4.024,0c2.602-0.235,3.311-2.365,5.677-2.365
			c1.421-2.366,4.022-2.839,6.152-4.257c1.891,0.235,1.184-2.13,2.838-2.604c1.896,0,0.948-2.604,2.602-2.366
			c0.711-1.421,1.896-2.128,3.078-3.075c0.471-1.183,1.892-1.895,1.183-3.313c0.709-0.473,0.947-1.42,1.655-1.184
			c1.183-0.947,1.658-2.13,1.658-3.55c1.183-0.471,0.472-2.366,2.365-2.13c0.235-1.89,1.891-3.311,2.838-4.968
			c0.948-0.709,0.475-1.892,1.419-2.365c1.659,0,3.078,0.712,4.496,1.656c0.474,1.183,0.712,2.84,0,4.022
			c-3.313,4.021-6.862,8.991-11.594,11.83c-1.655,1.654-4.494,1.893-5.203,4.02c1.653,0.947,2.601-1.183,3.783-0.471
			c4.261-1.183,8.282-2.602,10.883-6.15c0.948-0.711,2.604-0.711,3.078-1.895c0.947-0.472,1.893-0.236,2.837,0.235
			c0,3.787,0.477,7.336,1.895,10.647c0.473,1.658,1.893,2.603,2.366,4.261c0.472,0.471,0.472,1.183,1.184,0.946
			c0,0.236,0,0.236-0.236,0.236l1.184,1.654c0.707,0.712,1.419,1.659,2.128,2.604c1.893,0,1.893,1.892,3.549,2.127
			c1.421,0.238,1.892,1.421,3.311,1.421c0.947,0,0.947-0.474,1.659,0c1.654-0.474,3.785-0.238,5.439-0.238
			c1.659-1.418,3.549,0.477,5.443-1.183c0.947,0.947,1.418-0.471,2.366-0.706c0,0,0.235-0.238,0-0.477
			c0.235-0.235,0.709-0.235,0.947-0.471C534.465,372.331,533.991,370.437,533.756,369.254z M444.796,370.912
			c-0.237,2.838-0.711,5.438-2.604,7.334c-0.474,1.418-1.894,2.838-3.55,2.838c-0.474-0.708-1.183,0.237-1.892-0.237
			c-0.948-0.471-1.184-1.653-1.419-2.601c0-4.967,3.311-8.754,5.915-12.778c0.945-0.946,1.891-2.129,2.602-3.074
			c0.472,0,0.947,0.238,1.184,0.945c-0.712,0.711,0.709,1.658-0.236,2.365C445.979,367.6,444.32,369.254,444.796,370.912z
			 M492.115,320.751l-0.476,0.947c0.947,0.712,1.896-1.419,2.604,0c-0.238,2.131,0,4.022-0.709,5.915
			c-0.713,1.656-0.236,3.784-2.367,4.967c0.236,1.421-1.419,1.421-2.129,1.895c-0.948,0.236-1.655,0.709-2.603,1.184
			c0,0.709-1.895,1.654-0.235,1.893c0.471-0.474,0.944,0.237,1.418,0.237c0.472,1.184,1.183,2.367,0.472,3.312
			c-0.472,0.238-0.707,0.944-0.945,1.422c0.474,1.653-2.366,2.365-2.366,4.019c-1.656,2.604-4.259,5.206-5.676,7.811
			c-2.604,2.128-4.261,4.968-7.099,6.386c-2.131,2.131-4.731,2.603-6.862,4.261c-0.947,0.471-2.602,0.471-3.784,0.471
			c-1.659-2.601-0.477-6.385,0-8.989c0.944-1.656,1.419-3.549,2.366-5.205c0.471-0.947,1.183-1.893,1.418-2.838
			c1.183-0.476-0.474-1.421,0.471-2.131c0.712,0.948,0.712-0.235,1.184-0.474c0.238-1.183,1.659-2.127,2.842-3.549
			c0-0.474,0.707-0.474,0.471-1.183c1.896-0.238,0.474-2.365,2.603-2.365c0.238-1.657,1.184-2.84,2.366-4.023
			c1.183,1.184,1.895-0.947,2.842-1.419c2.837-3.077,6.859-4.967,9.699-8.517c-3.077,0-4.968,3.312-7.333,4.256
			c-2.604,2.366-5.916,3.313-7.336,6.627c-3.787,3.313-6.625,7.569-9.464,11.83c-0.238,1.183-1.184,2.602-2.366,2.838
			c-0.474-0.236-1.893,0-1.656-1.183c-0.236-1.42,0.235-3.313,0.474-4.969c0.944-0.709-0.238-2.131,0.944-2.366
			c0-2.601,2.604-4.021,3.078-6.15c1.892-1.419,2.601-3.313,4.258-4.968c2.365-0.476,3.075-3.313,5.678-3.787
			c0.947-1.892,3.548-2.365,4.261-4.258c1.183-1.184,3.549-1.419,4.495-3.549c3.311-1.419,5.677-4.497,9.464-5.206
			c0.707-0.709,1.655-0.474,2.366-0.238l0.472,0.477l0.235,4.494C494.481,319.568,493.535,320.279,492.115,320.751z
			 M506.073,333.057c0.238,1.891-1.42,2.838-0.945,4.731c-0.711,1.42-1.658,2.603-3.077,3.073c-0.709-1.653-0.947-3.549-2.131-4.967
			c-1.183-0.947-2.365-0.947-3.072-2.366c-0.238-1.184-0.477-3.55,0.707-4.497c0.238-1.418,0.947-3.311,1.659-4.731
			c-0.712-0.471,0.471-0.944,0.471-1.654c-0.235-1.419,0.712-2.366,0.947-3.549c0.948-0.947,2.131-0.712,3.313-1.184
			c1.183-0.947,2.838-0.235,3.785-1.418c0.947-0.238,1.654,0.235,2.366-0.476c0.235,1.183,1.183,0.476,1.892,0.711
			c-0.709,4.021-3.311,7.569-4.258,11.83C506.073,329.508,507.494,332.109,506.073,333.057z M519.324,368.546
			c-1.183,0.473-2.604-0.237-3.787-0.476c-1.656-0.707-3.075-2.366-4.258-3.785c-0.712-1.892-2.602-3.313-3.077-5.44
			c0-1.184-0.945-2.84,0-3.549c1.658,0.474,2.604,2.365,4.26,2.604c0.472,0.236,0.948,0.236,0.948,0.945
			c1.182,0.709,1.889,2.365,3.311,2.839c-0.238,1.184,0.709,1.419,1.183,1.893c1.183,0.238,1.656,1.421,2.129,2.128
			C520.507,366.888,519.56,367.6,519.324,368.546z"/>
		<path stroke="#000000" stroke-miterlimit="10" d="M476.025,379.664c-0.236,0.474,0.712,0.712,0.947,1.42
			c0.471-0.237,1.419,0.237,1.419-0.708c2.601-0.712,4.731-2.13,7.097-3.313c0.474-1.657,2.367-1.657,3.551-2.131
			c1.894-0.947,3.548-1.892,4.26-3.784c0.236-1.184-0.947-2.366-1.895-3.078c-0.709-0.235-1.655-0.945-2.365-0.471
			c-0.237-0.712-1.42-0.236-2.131-0.475c-1.183,0.475-2.129,0.71-2.838,0.71c-1.419,0.474-4.022-0.472-5.205,0.947l0.709,0.946
			c1.183,1.184,3.313,0.708,4.022,2.129C481.469,374.697,478.156,377.063,476.025,379.664z"/>
		<path stroke="#000000" stroke-miterlimit="10" d="M473.423,387.71c0-0.22-0.057-0.377-0.136-0.494
			C473.278,387.354,473.304,387.511,473.423,387.71z"/>
		<path stroke="#000000" stroke-miterlimit="10" d="M503.707,403.089c-1.656-0.474-0.944-2.603-2.84-3.077
			c-0.709,0-1.183-0.708-2.13-0.708c-1.183-0.475-1.418,0.708-2.366,0.236c-1.183,1.183-2.365,0.472-3.784,0.946
			c-0.947,1.184-2.365,0.708-3.076,2.129c-0.472-0.238,0-0.71-0.236-0.945c-2.366,0.472-5.678,0.707-8.518,0.235
			c-0.709-0.946-3.074-0.711-2.601-2.602c-0.948-0.947,0-1.658-0.713-2.604c0.477-0.71,0.477-1.184,1.422-1.657
			c0.238-1.653,2.365-1.653,3.311-2.601c1.183-0.713,2.842-0.475,4.025-1.657c3.31-0.238,5.914-3.075,8.752-4.022
			c1.183-0.709,2.602-0.947,3.549-1.893c1.183,0,1.895-0.709,2.602-1.421c1.895-0.471,0-2.128,0.238-3.312
			c-0.945,0-1.184-0.944-1.893-0.944l-0.947-0.947c-1.893,0-3.075-0.712-4.731,0.235c-2.366,1.42-4.969,2.13-7.334,3.549
			c-0.235,1.184-0.948,0.236-1.657,0.475c-2.128,1.183-4.731,1.183-7.097,2.365c-1.657,0-3.55,0.474-4.732,1.893
			c-0.945-0.709-1.657-1.419-2.841-1.183c1.184,0.711,0.236,2.84,1.657,2.601c0-0.234,0.238-0.471,0.238-0.706
			c0-0.712,0.472-0.477,0.945-0.477c0.127,0,0.247,0.081,0.337,0.218c0.042-0.693,1.397-0.768,1.791-1.162
			c1.659,0.709,0.238,1.656,0.238,2.604h0.709c1.657-0.711,3.313,0.945,4.967-0.711c0.713,0,1.422-1.42,2.131-0.71
			c0,0.238,0.235,0.71,0,0.944c0.947,2.131-2.603,3.078-3.313,4.732c-0.706,0.712-1.418,0.947-1.653,1.895
			c-2.131,1.418-3.078,3.313-4.023,5.441c0.474,1.421-1.183,2.128-0.945,3.55c0.708,1.656,0.708,3.31,2.129,4.258
			c1.421,1.183,3.549,1.895,5.44,1.418c0.712,1.184,1.895,0,2.84,0.238c1.421,0.474,3.787-1.656,4.97,0.238
			c0.235,0.235,0.473-0.238,0.473-0.238c1.183,0.945,2.129-0.474,3.313-0.238c0.471,0.712,1.419,0.947,2.13,1.421
			c0.236,0.474-0.237,0.945-0.237,1.184l-3.787,2.604c-0.946,1.183-2.838,1.418-3.312,2.838c-1.893-0.947-2.366,1.657-4.022,1.657
			c0,0.474-0.947,1.183-0.235,1.42c0.235-0.711,1.183-0.237,1.654-0.946c0.946,0.471,2.604-0.236,3.313-0.947
			c1.419,1.418,2.84-0.473,4.26,0c0.707,0.474,0.946-0.236,1.184-0.71c1.419-0.945,3.785,0.474,5.203-0.71
			c1.895,0.236,1.656-2.366,3.784-1.419c0.948,0.235,1.659-0.711,1.895-1.42c0.71-0.238,1.42-0.945,2.131-1.183
			c0.235-0.945,1.183-1.894,0.707-3.076C506.547,407.586,505.601,404.743,503.707,403.089z"/>
	</g>
</g>
</svg>
