<?xml version="1.0" encoding="utf-8"?>
<!-- Generator: Adobe Illustrator 15.1.0, SVG Export Plug-In . SVG Version: 6.00 Build 0)  -->
<!DOCTYPE svg PUBLIC "-//W3C//DTD SVG 1.1//EN" "http://www.w3.org/Graphics/SVG/1.1/DTD/svg11.dtd">
<svg version="1.1" id="圖層_1" xmlns="http://www.w3.org/2000/svg" xmlns:xlink="http://www.w3.org/1999/xlink" x="0px" y="0px"
	 width="292.334px" height="292.334px" viewBox="0 0 292.334 292.334" enable-background="new 0 0 292.334 292.334"
	 xml:space="preserve">
<g>
	<path fill="#EFEFEF" d="M156.593,69.542H141.37c-34.656,0-62.754,28.098-62.754,62.762v66.925c0,12.664,10.274,22.93,22.938,22.93
		c6.328,0,12.062-2.57,16.215-6.711c4.152-4.152,6.718-9.883,6.718-16.219v-15.431h32.106c31.551,0.001,57.129-25.575,57.129-57.128
		c0-15.777-6.395-30.055-16.738-40.398C186.647,75.937,172.371,69.542,156.593,69.542z M148.67,147.519h-25.856v-17.902
		c0-13.144,10.649-23.793,23.793-23.793h1.513c11.656,0,21.594,9.543,21.398,21.2C169.327,138.359,160.049,147.519,148.67,147.519z"
		/>
	<path fill="#EFEFEF" d="M0,0v292.334h292.334V0H0z M254.699,134.441c-3.816,48.871-43.603,82.91-93.523,84.804
		c-5,26.686-33.375,42.32-59.621,42.32c-35.41,0-64.219-26.926-64.219-62.336v-66.527c0-57.679,46.762-101.933,104.434-101.933
		h13.206C212.624,30.769,259.194,76.976,254.699,134.441z"/>
</g>
</svg>
