<?xml version="1.0" encoding="utf-8"?>
<!-- Generator: Adobe Illustrator 15.1.0, SVG Export Plug-In . SVG Version: 6.00 Build 0)  -->
<!DOCTYPE svg PUBLIC "-//W3C//DTD SVG 1.1//EN" "http://www.w3.org/Graphics/SVG/1.1/DTD/svg11.dtd">
<svg version="1.1" id="圖層_1" xmlns="http://www.w3.org/2000/svg" xmlns:xlink="http://www.w3.org/1999/xlink" x="0px" y="0px"
	 width="87.755px" height="83.673px" viewBox="0 0 87.755 83.673" enable-background="new 0 0 87.755 83.673" xml:space="preserve">
<path fill="#F2F2F2" d="M8.708,41.836c0,19.394,15.776,35.17,35.17,35.17c19.395,0,35.17-15.776,35.17-35.17
	s-15.775-35.17-35.17-35.17C24.484,6.667,8.708,22.443,8.708,41.836L8.708,41.836z M44.845,23.593L62.43,49.381
	c0.137,0.2,0.206,0.429,0.206,0.665c0,0.184-0.046,0.371-0.138,0.544c-0.2,0.382-0.601,0.622-1.036,0.622h-35.17
	c-0.435,0-0.835-0.24-1.036-0.624c-0.206-0.383-0.178-0.847,0.069-1.207L42.91,23.587c0.218-0.314,0.579-0.51,0.968-0.51
	C44.267,23.078,44.627,23.273,44.845,23.593L44.845,23.593z M44.845,23.593"/>
</svg>
