<?xml version="1.0" encoding="utf-8"?>
<!-- Generator: Adobe Illustrator 15.1.0, SVG Export Plug-In . SVG Version: 6.00 Build 0)  -->
<!DOCTYPE svg PUBLIC "-//W3C//DTD SVG 1.1//EN" "http://www.w3.org/Graphics/SVG/1.1/DTD/svg11.dtd">
<svg version="1.1" id="圖層_1" xmlns="http://www.w3.org/2000/svg" xmlns:xlink="http://www.w3.org/1999/xlink" x="0px" y="0px"
	 width="574.509px" height="547.959px" viewBox="0 0 574.509 547.959" enable-background="new 0 0 574.509 547.959"
	 xml:space="preserve">
<g>
	<path stroke="#000000" stroke-miterlimit="10" d="M120.803,160.962c6.035-8.957,16.9-16.418,25.353-23.88
		c16.901-4.474,31.39-19.399,43.462-34.322c6.037-2.989,4.829-11.937,12.074-14.925c-1.208-7.46,6.036-11.937,4.827-20.892
		c2.417-11.944,1.208-28.354-4.827-40.296c-14.49-14.924-31.39-22.386-51.916-20.892c-3.62-1.495-7.24-2.987-8.447,1.494
		l7.244,10.441c-1.208,8.957,4.829,20.899-1.208,29.849c1.208,7.46-1.209,20.899,0,29.847c2.411,10.449-4.829,14.922-10.865,19.404
		c0,16.418-13.281,22.387-13.281,37.309c-10.863,11.938-14.49,29.849-19.316,43.28C107.521,171.41,117.183,171.41,120.803,160.962z"
		/>
	<path stroke="#000000" stroke-miterlimit="10" d="M284.991,184.841c-1.209-16.418,10.864-28.353,7.244-46.267
		c3.62-25.366-2.417-52.232-10.864-74.617c-6.037-5.97-7.246-14.925-12.072-22.388c0,16.418,0,32.836-2.417,49.254
		c-3.619,4.474-3.619,8.948-3.619,13.43c-3.625,10.442-4.834,22.386-8.454,31.341c-1.208,16.411-3.619,35.816-12.072,49.247
		c2.417,10.45-6.037,14.923-3.619,23.878c-6.037,4.475-3.625,13.43-8.454,19.4c-3.619,13.429-8.453,28.354-15.691,40.296
		c-4.834,17.906-18.109,31.344-26.562,46.268c1.207,2.979-3.62,2.979-1.209,5.968l2.416-4.482c4.829-1.485,9.656-7.463,14.484-2.98
		c9.662-16.417,27.771-23.88,37.426-41.791c22.938-17.904,26.562-49.247,41.047-76.106
		C283.782,192.302,281.372,187.828,284.991,184.841z"/>
	<path stroke="#000000" stroke-miterlimit="10" d="M380.363,146.037c9.661,5.968,22.937-1.493,33.808,7.462
		c2.41,2.988,0,7.462,0,10.449c-7.246,5.969-10.871,19.398-19.318,23.879c-1.208,8.948-10.863,7.462-9.662,16.41
		c6.037-10.442,16.907-1.485,24.146-10.442c12.073,1.495,21.734-7.461,33.808-5.968c28.973-7.463,62.778-8.956,78.47-41.791
		c-1.214-5.968-2.416-11.938-6.035-16.418c-6.037-2.98-14.49-1.486-20.525-2.98c-14.484-11.944-31.391-2.987-48.29-10.45
		c-10.864,8.956-24.146,14.924-36.218,20.893c-12.073,0-22.938,4.481-33.801,4.481c-3.626,1.494-8.454,1.494-8.454,5.968
		C371.915,149.025,375.535,144.544,380.363,146.037z"/>
	<path stroke="#000000" stroke-miterlimit="10" d="M365.88,144.544c-1.091,0-1.875,0.029-2.589,0.167
		C364.224,144.893,365.155,144.989,365.88,144.544z"/>
	<path stroke="#000000" stroke-miterlimit="10" d="M361.046,147.531v-1.494c0.667-0.824,1.386-1.158,2.245-1.327
		c-2.175-0.423-4.297-1.363-3.447,2.82H361.046z"/>
	<path stroke="#000000" stroke-miterlimit="10" d="M412.962,311.694c-2.417-4.474-2.417-10.451-7.246-14.924
		c0-7.463,8.455-8.956,12.074-14.923c8.453-14.927,24.145-25.375,24.145-46.269c-2.417-1.493-3.619-7.46-6.036-8.955
		c-8.452-8.949-19.317-13.43-30.183-10.442c-14.488-7.463-20.525,11.937-31.39,17.904c-12.071,5.976-22.937,14.925-35.009,19.406
		c-4.828-2.988-7.244-11.944-9.655-17.913c0-11.934-6.036-22.385-8.454-32.826l-1.208,7.46
		c-12.072,20.892-10.864,50.741-15.692,76.107c1.209,14.922-6.035,28.361-9.661,43.284c1.209,8.948-1.203,19.398-3.62,26.86
		c-1.208,11.936,6.037,25.374,13.281,32.836c3.62,2.979,4.828,0,9.656,0c6.036-1.494,4.828-8.956,6.036-14.924
		c1.208-10.45,10.864-11.945,15.698-16.418c7.239,0,15.691-10.449,21.729-1.494c-8.453,25.374-20.526,52.233-33.801,76.113
		c-8.454,4.475-10.87,14.925-14.49,23.881c-10.863,5.967-20.525,20.891-30.181,32.827c2.417,0,4.827,0,7.245-1.494
		c7.243-5.968,15.69-11.938,20.519-22.386c12.073-4.475,13.281-19.398,24.146-25.365c7.244-7.463,12.073-14.925,18.109-23.88
		c7.244-10.452,14.489-25.373,25.353-31.344c6.037-11.935,12.073-23.877,16.901-37.308
		C390.024,326.619,410.545,329.605,412.962,311.694z M346.563,314.683c-3.626,7.461-10.865,13.43-15.699,16.41
		c-6.037-5.969,0-13.432-1.202-19.398c4.827-13.43,0-29.847,7.238-43.279c10.87-2.986,21.734-1.494,32.599-10.449
		c1.209,1.493,3.619,4.482,3.619,8.955C365.88,283.341,359.844,302.739,346.563,314.683z"/>
	<path stroke="#000000" stroke-miterlimit="10" d="M208.936,362.433c-4.833-10.441,0-22.385-4.833-32.827h-1.203
		c3.619,10.442-9.662,16.411-1.208,23.873c-8.454,20.899-9.662,46.266-13.281,67.157c-7.245,5.976-2.418,17.911-7.245,25.373
		c-1.208,14.924-3.62,29.847-9.656,41.784c-6.037,4.48-7.245,17.911-14.49,14.922c-8.448-13.428-14.484-29.846-13.281-46.255
		c4.833-20.9,0-43.285,2.417-65.671c7.245-2.981,1.209-13.432,6.036-19.399c-1.208-16.418,7.245-26.858,9.656-41.784
		c6.037-2.986,1.209-10.449,7.245-13.438c2.417-23.873,16.9-35.816,25.354-56.709c4.828-4.474,4.828-14.922,6.037-22.385
		c-2.417-13.429-16.901-8.955-19.317-20.892h-7.246c-10.863-10.45-21.728,2.982-32.592,4.474c-3.625,0-6.037,7.463-10.864,5.968
		c-7.246,7.461-16.906,8.955-26.562,14.923c-8.453-2.98-10.864,13.438-20.525,8.956c-13.275,8.955-28.974,13.431-44.666,19.406
		c-10.865,5.968-19.317,11.938-30.182,13.431c-2.417,1.494-6.036,2.98-4.828,5.967c6.037,2.987,10.865-1.493,16.9,4.476
		c6.037-4.476,9.656,4.481,16.9,1.493c6.037,5.967,10.865-1.493,18.109,2.988c8.454-4.481,18.11,2.979,25.354-5.97
		c8.447-5.974,18.109-8.954,26.555-16.417c9.662-4.481,19.317-11.943,27.771-17.912c10.864-1.493,18.109-14.925,28.973-10.442
		c3.62,10.442-6.036,13.432-2.417,22.387c-4.828,4.474-2.411,11.938-6.037,16.411c1.209,13.438-9.655,25.373-6.036,40.298
		c-3.62,8.954-4.828,22.385-8.447,31.341c-4.828,8.955,1.208,19.397-3.625,28.354c0,14.922,0,26.86-1.203,41.784
		c-6.036,5.974-1.208,16.418-2.417,25.373c-3.619,10.448-1.208,23.879-2.417,37.311c2.417,22.385,15.698,44.77,32.598,49.242
		c7.245,7.463,16.901,1.489,25.353,0c10.865-5.974,10.865-22.385,13.282-35.813c9.656-7.462,1.203-19.398,4.828-29.847
		c4.828-11.938-1.208-22.387,4.828-35.817c0-1.493-1.209-4.475,0-5.968C210.139,411.688,205.311,386.314,208.936,362.433z"/>
	<path stroke="#000000" stroke-miterlimit="10" d="M569.905,463.92c-13.288-10.448-20.525-25.373-32.6-37.309
		c0-5.976-4.833-7.463-8.44-8.957c-2.429,4.475,1.202,7.463,2.404,10.444c2.417,8.955-1.202,17.91,4.835,25.373
		c1.201,10.448,1.201,22.384,0,32.836c-8.453,20.893-31.386,22.386-45.887,31.332v-2.98c-15.687-2.985-32.592-4.481-48.283,0
		c-3.619-5.966-10.864,1.496-14.488-5.966c-7.24,0-13.275-5.979-20.521-7.465c-6.036-8.955-14.488-17.908-13.28-29.847
		c-3.62-11.942,0-20.898-1.208-34.328c3.624-4.475,4.828-11.937,8.452-16.418c-2.417-8.947,7.245-14.926,3.62-25.367
		c-3.62-4.479-7.244-10.45-13.281-11.942c-3.62,4.481-10.864,1.492-12.072,7.463c12.072,13.437,8.452,34.328,7.244,50.746
		c3.625,5.969-1.209,10.442,1.208,14.925c-6.036,8.947,0,19.396-2.417,28.353c0,8.956,3.626,14.925,8.454,19.398
		c1.208,7.463,10.864,10.448,14.489,16.418c10.863,1.493,19.313,8.961,28.974,1.493c2.41,4.473,9.655,1.494,12.071,7.468
		c7.246-1.499,14.483,4.461,21.729,1.487c8.453,8.947,13.274-5.975,20.526-5.975c2.416-4.474,6.035-5.969,9.654-8.947
		c4.834,2.979,0,8.947,1.203,11.936c7.25,0,12.072,1.499,19.322,1.499c6.038-10.456,16.896-5.974,25.36-10.456
		c3.607-1.494,9.644-4.475,13.275-4.475C575.941,505.704,569.905,480.331,569.905,463.92z"/>
	<path stroke="#000000" stroke-miterlimit="10" d="M272.918,493.769c3.089,3.818,2.688-1.035,4.751-2.543
		C275.424,491.822,272.918,491.27,272.918,493.769z"/>
	<path stroke="#000000" stroke-miterlimit="10" d="M277.669,491.226c0.437-0.116,0.89-0.197,1.286-0.443
		C278.423,490.782,278.023,490.97,277.669,491.226z"/>
</g>
</svg>
