<?xml version="1.0" encoding="utf-8"?>
<!-- Generator: Adobe Illustrator 15.1.0, SVG Export Plug-In . SVG Version: 6.00 Build 0)  -->
<!DOCTYPE svg PUBLIC "-//W3C//DTD SVG 1.1//EN" "http://www.w3.org/Graphics/SVG/1.1/DTD/svg11.dtd">
<svg version="1.1" id="圖層_1" xmlns="http://www.w3.org/2000/svg" xmlns:xlink="http://www.w3.org/1999/xlink" x="0px" y="0px"
	 width="205px" height="212.333px" viewBox="0 0 205 212.333" enable-background="new 0 0 205 212.333" xml:space="preserve">
<path fill="#F7F8F8" d="M94.532,126.791l80.715,80.715H13.817L94.532,126.791z M183.731,97.514v101.508l-80.71-80.716l16.125-16.125
	c-0.309-0.375-0.617-0.75-0.926-1.129c-2.184-2.664-4.438-5.41-6.609-8.313L5.333,199.022V33.106c0-2.21,1.793-4,4-4h97.16
	c9.137-14.113,25.012-23.48,43.039-23.48c28.262,0,51.254,22.992,51.254,51.254C200.786,74.725,192.243,86.955,183.731,97.514
	L183.731,97.514z M84.021,69.979H54.372v11.293h17.465c-2.387,7.367-9.313,12.707-17.465,12.707
	c-10.117,0-18.351-8.231-18.351-18.352s8.234-18.352,18.351-18.352c4.09,0,7.957,1.313,11.184,3.797l6.89-8.949
	c-5.218-4.019-11.468-6.141-18.074-6.141c-16.344,0-29.644,13.297-29.644,29.645c0,16.348,13.296,29.648,29.644,29.648
	s29.649-13.3,29.649-29.648V69.979z M188.786,56.88c0-21.68-17.574-39.254-39.254-39.254c-21.676,0-39.25,17.574-39.25,39.254
	c0,32.586,36.848,41.922,36.848,80.746h4.809C151.935,98.803,188.786,89.467,188.786,56.88L188.786,56.88z M149.532,38.928
	c-8.445,0-15.297,6.847-15.297,15.293c0,8.449,6.852,15.297,15.297,15.297c8.449,0,15.297-6.848,15.297-15.297
	C164.829,45.774,157.981,38.928,149.532,38.928L149.532,38.928z M149.532,38.928"/>
</svg>
