<?xml version="1.0" encoding="utf-8"?>
<!-- Generator: Adobe Illustrator 15.1.0, SVG Export Plug-In . SVG Version: 6.00 Build 0)  -->
<!DOCTYPE svg PUBLIC "-//W3C//DTD SVG 1.1//EN" "http://www.w3.org/Graphics/SVG/1.1/DTD/svg11.dtd">
<svg version="1.1" id="圖層_1" xmlns="http://www.w3.org/2000/svg" xmlns:xlink="http://www.w3.org/1999/xlink" x="0px" y="0px"
	 width="93.877px" height="77.551px" viewBox="0 0 93.877 77.551" enable-background="new 0 0 93.877 77.551" xml:space="preserve">
<g>
	<path fill="#0B1035" d="M56.028,38.193l13.191,12.36c0.459,0.438,0.482,1.169,0.045,1.63c-0.227,0.241-0.529,0.359-0.845,0.359
		c-0.28,0-0.562-0.101-0.787-0.313L54.39,39.806c-0.033-0.032-0.062-0.069-0.09-0.104l-3.755,3.273
		c-1.17,1.023-2.698,1.535-4.229,1.535c-1.539,0-3.069-0.512-4.226-1.522l-3.76-3.28c-0.027,0.033-0.053,0.067-0.085,0.099
		L24.991,52.229c-0.225,0.214-0.508,0.313-0.785,0.313c-0.318,0-0.62-0.118-0.844-0.359c-0.441-0.461-0.417-1.19,0.042-1.63
		l13.191-12.36l-23.13-20.421c-0.171,0.408,0.019,0.855,0.019,1.324v39.247c0,1.911,0.983,3.432,2.883,3.432h59.89
		c1.911,0,4.229-1.521,4.229-3.432V19.097c0-0.468-0.482-0.915-0.651-1.321L56.028,38.193z"/>
	<path fill="#0B1035" d="M43.597,41.245c1.474,1.279,3.957,1.279,5.429,0l28.877-25.118c-0.488-0.266-1.051-0.353-1.646-0.353
		h-59.89c-0.591,0-1.147,0.086-1.637,0.352L43.597,41.245z"/>
</g>
</svg>
