<?xml version="1.0" encoding="utf-8"?>
<!-- Generator: Adobe Illustrator 15.1.0, SVG Export Plug-In . SVG Version: 6.00 Build 0)  -->
<!DOCTYPE svg PUBLIC "-//W3C//DTD SVG 1.1//EN" "http://www.w3.org/Graphics/SVG/1.1/DTD/svg11.dtd">
<svg version="1.1" id="圖層_1" xmlns="http://www.w3.org/2000/svg" xmlns:xlink="http://www.w3.org/1999/xlink" x="0px" y="0px"
	 width="82.938px" height="79.9px" viewBox="0 -2.349 82.938 79.9" enable-background="new 0 -2.349 82.938 79.9"
	 xml:space="preserve">
<path fill="#F7F8F8" d="M21.282,16.12c-2.32-0.978-5.068-0.102-6.36,2.136l-4.408,7.638c-1.293,2.237-0.679,5.055,1.328,6.579
	L2.246,49.09c-0.446,0.777-0.267,1.767,0.43,2.336c0.076,0.063,0.158,0.116,0.244,0.166c0.665,0.384,1.512,0.315,2.109-0.199
	c0.129-0.104,4.754-3.678,19.3-3.786c12.509-0.094,22.62,5.084,25.609,6.792c-0.159,1.629,0.619,3.28,2.127,4.151l1.238,0.717
	l-8.169,9.87c-0.572,0.693-0.809,1.597-0.65,2.482c0.156,0.884,0.695,1.649,1.475,2.097l4.309,2.489
	c1.293,0.745,2.921,0.453,3.87-0.696l8.829-10.664l2.284,1.32c2.056,1.187,4.692,0.479,5.879-1.577l0.124-0.215l0.582,0.336
	c1.66,0.957,3.787,0.388,4.744-1.271l3.892-6.739c0.958-1.658,0.387-3.786-1.271-4.745l-0.583-0.335l0.126-0.218
	c1.187-2.056,0.48-4.69-1.575-5.877L63.979,37.91c-1.506-0.87-3.326-0.717-4.657,0.235c-2.977-1.735-12.513-7.902-18.688-18.785
	c-7.28-12.828-6.388-18.523-6.377-18.577c0.181-0.879-0.3-1.761-1.143-2.08c-0.84-0.318-1.787,0.019-2.238,0.796L21.282,16.12
	L21.282,16.12z M61.272,41.317c0.177-0.305,0.57-0.409,0.878-0.233l13.186,7.613c0.307,0.177,0.411,0.57,0.233,0.874L67.957,62.76
	c-0.177,0.306-0.571,0.41-0.875,0.233L53.894,55.38c-0.305-0.178-0.411-0.571-0.235-0.875L61.272,41.317z"/>
</svg>
