<?xml version="1.0" encoding="utf-8"?>
<!-- Generator: Adobe Illustrator 15.1.0, SVG Export Plug-In . SVG Version: 6.00 Build 0)  -->
<!DOCTYPE svg PUBLIC "-//W3C//DTD SVG 1.1//EN" "http://www.w3.org/Graphics/SVG/1.1/DTD/svg11.dtd">
<svg version="1.1" id="圖層_1" xmlns="http://www.w3.org/2000/svg" xmlns:xlink="http://www.w3.org/1999/xlink" x="0px" y="0px"
	 width="93.877px" height="77.551px" viewBox="0 0 93.877 77.551" enable-background="new 0 0 93.877 77.551" xml:space="preserve">
<g>
	<path fill="#F7F8F8" d="M47.781,40.596c6.158,0,11.145-4.987,11.145-11.146c0-6.152-4.986-11.14-11.145-11.14
		c-6.153,0-11.145,4.987-11.145,11.145C36.636,35.608,41.627,40.596,47.781,40.596z M48.746,38.005c0,0.157,0.459,0.496,0.34,0.611
		c-0.117,0.118,0.264,0.378,0.105,0.378h-3.526c-0.156,0-0.459-0.26-0.578-0.378c-0.117-0.115-0.342-0.454-0.342-0.611v-3.526
		c0-0.156,0.225-0.242,0.342-0.36c0.118-0.116,0.422-0.124,0.578-0.124h3.526c0.158,0-0.223,0.008-0.105,0.124
		c0.119,0.118-0.34,0.204-0.34,0.36V38.005z M40.936,23.699c1.567-2.605,3.838-3.906,6.815-3.906c0.785,0,1.57,0.15,2.365,0.452
		c0.791,0.306,1.508,0.712,2.145,1.221c0.635,0.51,1.154,1.133,1.557,1.874c0.402,0.738,0.604,1.514,0.604,2.326
		c0,0.53-0.078,1.023-0.23,1.482c-0.15,0.462-0.32,0.838-0.514,1.127c-0.189,0.286-0.461,0.578-0.809,0.871
		c-0.346,0.295-0.629,0.506-0.842,0.641c-0.217,0.131-0.518,0.309-0.896,0.52c-0.402,0.229-0.738,0.545-1.006,0.954
		c-0.27,0.413-0.404,0.741-0.404,0.983c0,0.17-0.059,0.35-0.178,0.502c-0.115,0.15-0.254,0.248-0.41,0.248h-3.524
		c-0.148,0-0.439-0.112-0.542-0.292c-0.104-0.181-0.32-0.388-0.32-0.573v-0.662c0-0.813,0.483-1.578,1.121-2.299
		c0.635-0.718,1.42-1.25,2.184-1.592c0.578-0.265,1.029-0.539,1.273-0.822c0.246-0.285,0.389-0.656,0.389-1.115
		c0-0.413-0.217-0.775-0.67-1.087c-0.457-0.313-0.979-0.472-1.576-0.472c-0.635,0-1.161,0.143-1.582,0.426
		c-0.342,0.244-0.866,0.808-1.571,1.69c-0.127,0.154-0.278,0.233-0.455,0.233c-0.117,0-0.239-0.039-0.366-0.116l-2.408-1.835
		c-0.128-0.1-0.204-0.223-0.229-0.369C40.831,23.963,40.858,23.826,40.936,23.699z"/>
	<path fill="#F7F8F8" d="M28.226,29.094c2.182,0,4.211-0.639,5.928-1.722c0.546-3.562,2.459-6.677,5.186-8.798
		c0.01-0.207,0.034-0.412,0.034-0.625c0-6.152-4.992-11.145-11.147-11.145c-6.151,0-11.143,4.992-11.143,11.145
		C17.083,24.104,22.075,29.094,28.226,29.094z"/>
	<path fill="#F7F8F8" d="M61.509,28.039c1.43,0.666,3.023,1.051,4.709,1.051c6.154,0,11.145-4.986,11.145-11.141
		c0-6.157-4.99-11.145-11.145-11.145c-6.098,0-11.043,4.899-11.135,10.974C58.597,19.982,61.06,23.709,61.509,28.039z"/>
	<path fill="#F7F8F8" d="M70.945,29.994h-9.379c-0.104,4-1.551,7.064-4.086,9.496c6.994,2.078,12.266,8.49,12.266,16.152v3.561
		c8-0.338,14.447-2.809,14.801-2.984l0.586-0.225h-0.387V44.119C84.746,36.252,78.812,29.994,70.945,29.994z"/>
	<path fill="#F7F8F8" d="M53.507,41.994h-9.454c-7.868,0-15.308,5.764-15.308,13.631v11.566l0.551,0.181l1.055,0.25
		c7.506,2.343,14.16,3.124,19.531,3.124c10.488,0,16.627-2.084,17.006-2.277l0.807,0.525h0.051V55.625
		C67.746,47.758,61.375,41.994,53.507,41.994z"/>
	<path fill="#F7F8F8" d="M38.548,39.42c-2.523-2.422-4.276-5.713-4.393-9.445c-0.348-0.022-0.85,0.02-1.2,0.02H23.5
		c-7.871,0-14.754,6.258-14.754,14.125v11.565l0.27,0.181l1.228,0.25c6.023,1.88,10.503,2.746,16.503,3.019v-3.491
		C26.746,47.98,31.551,41.498,38.548,39.42z"/>
</g>
</svg>
