<?xml version="1.0" encoding="utf-8"?>
<!-- Generator: Adobe Illustrator 15.1.0, SVG Export Plug-In . SVG Version: 6.00 Build 0)  -->
<!DOCTYPE svg PUBLIC "-//W3C//DTD SVG 1.1//EN" "http://www.w3.org/Graphics/SVG/1.1/DTD/svg11.dtd">
<svg version="1.1" id="圖層_1" xmlns="http://www.w3.org/2000/svg" xmlns:xlink="http://www.w3.org/1999/xlink" x="0px" y="0px"
	 width="93.877px" height="77.551px" viewBox="0 0 93.877 77.551" enable-background="new 0 0 93.877 77.551" xml:space="preserve">
<path fill="#F7F8F8" d="M63.704,52.136c-0.905,0.553-2.34,1.445-3.196,1.975c-0.857,0.531-1.752,1.088-2.002,1.234
	c-0.776,0.469-2.036,1.244-3.737,2.303c-0.912,0.566-2.458,1.523-3.436,2.117c-1.488,0.919-1.796,1.068-1.993,0.948
	c-0.123-0.069-0.229-0.194-0.229-0.267c0.001-0.069,0.339-0.698,0.757-1.385l0.379-0.623c0.209-0.35,0.766-0.864,1.239-1.157
	c0.478-0.302,0.863-0.538,0.863-0.538c0.94-0.581,2.456-1.521,3.372-2.089c0.907-0.571,2.923-1.818,4.476-2.771
	c1.553-0.963,3.596-2.227,4.542-2.814c0.95-0.582,1.774-1.064,1.844-1.067c0.171-0.001,0.933,1.146,0.97,1.462
	c0.021,0.145-0.067,0.318-0.211,0.401c-0.143,0.089-0.387,0.25-0.556,0.37c-0.161,0.109-0.56,0.355-0.873,0.547
	C65.595,50.97,64.596,51.577,63.704,52.136L63.704,52.136z M45.123,61.638c-0.254-0.102-0.436-0.041-1.264,0.448
	c-1.711,1.009-2.214,1.392-2.353,1.813c-0.104,0.307-0.09,0.461,0.06,0.746c0.144,0.271,0.601,0.58,0.834,0.569
	c0.012,0.001,0.332-0.168,0.698-0.378c0.585-0.327,0.796-0.545,1.497-1.637c0.453-0.686,0.814-1.292,0.819-1.344
	C45.417,61.801,45.282,61.707,45.123,61.638L45.123,61.638z M46.387,62.409c-0.072-0.075-0.085,0.829-0.052,2.384
	c0.058,2.302,0.084,2.51,0.312,2.726c0.324,0.302,0.805,0.389,1.116,0.206c0.438-0.268,0.548-0.534,0.537-1.336
	c0.001-0.698-0.061-0.883-0.575-1.748c-0.311-0.529-0.71-1.226-0.896-1.542C46.649,62.788,46.452,62.474,46.387,62.409
	L46.387,62.409z M45.931,63.757c-0.01-1.033-0.063-1.76-0.134-1.759c-0.067,0.012-0.592,0.835-1.168,1.854
	c-1.182,2.072-1.331,2.631-0.781,3.051c0.405,0.311,1.023,0.264,1.338-0.086C45.843,66.058,45.952,65.636,45.931,63.757
	L45.931,63.757z M59.409,41.126c-0.002-0.153-1.598-0.975-1.72-0.895c-0.063,0.044-0.296,0.406-0.515,0.803
	c-0.213,0.402-0.479,0.893-0.598,1.102c-0.301,0.564-3.344,6.061-4.407,7.968c-0.502,0.919-1.033,1.876-1.164,2.124
	c-0.458,0.834-2.024,3.654-2.291,4.1c-0.234,0.4-0.259,0.625-0.246,2.205c0.012,1.329,0.058,1.754,0.177,1.753
	c0.082-0.004,0.406-0.45,0.723-0.988c0.307-0.532,0.677-1.194,0.814-1.456c0.144-0.26,0.673-1.229,1.181-2.142
	c0.515-0.917,1.431-2.567,2.042-3.688c0.618-1.108,1.534-2.771,2.039-3.68c0.509-0.912,1.029-1.85,1.154-2.08
	c0.439-0.799,1.631-2.941,2.221-3.984C59.142,41.687,59.413,41.179,59.409,41.126L59.409,41.126z M48.782,63.577
	c-0.902-0.497-1.662-0.888-1.692-0.856c-0.057,0.062,2.081,3.646,2.358,3.959c0.233,0.255,0.873,0.298,1.218,0.077
	c0.11-0.068,0.274-0.296,0.358-0.506c0.131-0.354,0.111-0.451-0.223-1.072C50.46,64.516,50.365,64.448,48.782,63.577L48.782,63.577z
	 M13.184,23.608c-2.489,2.232-5.102,5.158-7.205,8.067c-0.76,1.046-2.688,4.065-2.681,4.2c-0.002,0.071,0.82,0.563,1.83,1.084
	c1.009,0.531,2.025,1.08,2.267,1.22c0.229,0.139,1.38,0.759,2.544,1.38c1.156,0.613,2.474,1.322,2.917,1.559
	c2.774,1.506,7.703,4.171,8.065,4.361c0.242,0.128,1.131,0.605,1.99,1.062c4.357,2.351,4.616,2.483,4.718,2.291
	c0.4-0.738,2.109-2.911,3.004-3.801c3.639-3.663,7.18-5.665,12.134-6.871c2.109-0.516,5.218-0.716,7.374-0.471
	c7.326,0.805,13.387,4.574,17.256,10.728c0.344,0.564,0.644,1.008,0.659,1.013c0.012,0.001,0.441-0.255,0.939-0.566
	c0.503-0.314,1.827-1.132,2.942-1.826c1.112-0.697,2.247-1.396,2.52-1.554c0.27-0.16,1.373-0.841,2.45-1.512
	c1.083-0.668,3.071-1.89,4.419-2.722c5.659-3.491,9.133-5.637,9.889-6.111c0,0,0.188-0.113,0.411-0.249
	c0.226-0.146,0.211-0.569-0.022-0.952l-0.424-0.696c-1.73-2.826-4.253-6.08-6.516-8.398c-2.1-2.165-5.145-4.766-7.278-6.221
	c-1.638-1.104-2.109-1.42-2.293-1.5c-0.106-0.041-0.608-0.336-1.115-0.656c-0.516-0.328-1.3-0.764-1.747-0.98
	c-0.458-0.211-1.117-0.553-1.469-0.752c-2.348-1.288-7.967-3.219-11.481-3.951c-1.079-0.23-1.888-0.358-4.638-0.772
	c-2.195-0.323-7.168-0.378-10.271-0.104c-3.374,0.297-4.364,0.445-7.493,1.137c-4.881,1.082-10.612,3.402-15.069,6.105
	c-2.633,1.598-5.716,3.822-7.357,5.305C14.058,22.811,13.492,23.333,13.184,23.608L13.184,23.608z M42.352,51.013
	c-0.855-1.465-0.947-1.61-2.541-4.295c-0.795-1.325-1.583-2.66-1.757-2.963c-1.85-3.189-1.544-2.906-2.523-2.293
	c-0.442,0.273-0.804,0.556-0.805,0.631c0.001,0.069,0.12,0.313,0.271,0.546c0.142,0.23,0.378,0.603,0.506,0.821
	c0.123,0.227,0.663,1.122,1.189,1.996c0.521,0.873,1.588,2.656,2.364,3.953c0.777,1.286,2.07,3.464,2.893,4.826
	c0.816,1.361,1.635,2.748,1.825,3.069c0.312,0.528,0.514,0.685,1.919,1.445c0.867,0.466,1.6,0.848,1.634,0.849
	c0.035,0-0.143-0.373-0.407-0.82c-0.253-0.451-0.633-1.117-0.848-1.486c-0.206-0.365-0.51-0.864-0.671-1.111
	c-0.159-0.248-0.29-0.465-0.293-0.5c-0.001-0.025-0.292-0.525-0.652-1.123C43.342,52.7,42.96,52.069,42.352,51.013L42.352,51.013z
	 M3.008,36.31c0.033-0.048,0.406,0.144,2.898,1.483c0.856,0.467,1.777,0.963,2.049,1.106c0.27,0.141,1.528,0.818,2.791,1.498
	c1.266,0.68,3.58,1.923,5.157,2.762c1.563,0.842,3.387,1.813,4.036,2.165c2.414,1.302,3.673,1.976,4.091,2.205
	c0.242,0.124,1.553,0.827,2.922,1.563c1.362,0.73,3.515,1.883,4.776,2.566c1.262,0.68,2.858,1.535,3.541,1.896
	c0.68,0.372,2.528,1.363,4.092,2.205c1.575,0.838,3.56,1.906,4.41,2.368c0.85,0.46,2.441,1.314,3.542,1.899
	c4.645,2.486,5.35,2.865,5.543,3.029c0.491,0.408,0.361,1.287-0.251,1.62c-0.165,0.087-0.369,0.171-0.439,0.171
	c-0.188,0.01-2.159-0.973-2.805-1.393c-0.176-0.121-0.353-0.221-0.383-0.214c-0.028-0.003-0.549-0.265-1.162-0.597
	c-0.604-0.328-1.383-0.746-1.725-0.933c-0.341-0.174-0.702-0.38-0.808-0.434c-0.459-0.276-2.139-1.155-2.184-1.152
	c-0.023,0.001-0.278-0.137-0.555-0.296c-0.272-0.166-0.708-0.407-0.963-0.535c-0.769-0.406-5.364-2.873-6.329-3.405
	c-0.5-0.28-0.932-0.505-0.954-0.507c-0.019,0.01-0.462-0.229-0.976-0.508c-0.514-0.28-1.646-0.896-2.521-1.368
	c-0.873-0.472-2.326-1.253-3.23-1.741c-0.896-0.484-1.853-0.988-2.109-1.127c-0.257-0.131-0.976-0.518-1.59-0.859
	c-1.489-0.801-3.177-1.71-5.587-2.996c-1.091-0.588-2.549-1.361-3.229-1.729c-0.682-0.377-1.776-0.963-2.421-1.309
	c-0.648-0.352-2.071-1.115-3.168-1.697c-2.692-1.439-5.102-2.747-6.223-3.364c-0.514-0.279-0.985-0.511-1.044-0.508
	c-0.212,0.01-0.125-0.261,0.329-1.045C2.765,36.708,2.985,36.334,3.008,36.31L3.008,36.31z M47.586,60.634
	c-0.58-0.354-1.2,0.357-0.744,0.838c0.28,0.3,0.696,0.281,0.975-0.037C48.077,61.14,48.005,60.895,47.586,60.634L47.586,60.634z
	 M46.529,37.999c-0.27,0.012-0.479,0.954-0.467,2.116l0.148,14.752c0.011,1.153,0.224,2.438,0.471,2.87l0.448,0.776
	c0.502,0.852,0.949,1.547,1.008,1.543c0.054,0.004,0.049-4.981-0.007-11.058l-0.098-8.958c-0.003-1.154-0.238-2.086-0.503-2.079
	l-0.495,0.018L46.529,37.999z M47.035,37.979"/>
</svg>
