<?xml version="1.0" encoding="utf-8"?>
<!-- Generator: Adobe Illustrator 15.1.0, SVG Export Plug-In . SVG Version: 6.00 Build 0)  -->
<!DOCTYPE svg PUBLIC "-//W3C//DTD SVG 1.1//EN" "http://www.w3.org/Graphics/SVG/1.1/DTD/svg11.dtd">
<svg version="1.1" id="圖層_1" xmlns="http://www.w3.org/2000/svg" xmlns:xlink="http://www.w3.org/1999/xlink" x="0px" y="0px"
	 width="93.877px" height="77.551px" viewBox="0 0 93.877 77.551" enable-background="new 0 0 93.877 77.551" xml:space="preserve">
<path fill="#0B1035" d="M79.62,10.675c-1.122-1.122-2.471-1.683-4.044-1.683H18.303c-1.576,0-2.925,0.561-4.047,1.683
	c-1.122,1.121-1.682,2.472-1.682,4.046v48.11c0,1.575,0.56,2.924,1.682,4.045c1.122,1.123,2.471,1.682,4.047,1.682h57.272
	c1.574,0,2.924-0.559,4.044-1.682c1.122-1.121,1.685-2.47,1.685-4.045v-48.11C81.304,13.147,80.742,11.796,79.62,10.675
	L79.62,10.675z M26.319,61.685c0,0.623-0.225,1.158-0.678,1.611c-0.454,0.455-0.991,0.68-1.61,0.68h-4.583
	c-0.619,0-1.158-0.225-1.611-0.68c-0.452-0.453-0.68-0.988-0.68-1.611v-4.58c0-0.619,0.228-1.158,0.68-1.61
	c0.453-0.455,0.992-0.681,1.611-0.681h4.58c0.622,0,1.159,0.226,1.611,0.681c0.455,0.452,0.68,0.991,0.68,1.61V61.685z
	 M26.319,47.94c0,0.619-0.225,1.158-0.678,1.609c-0.454,0.453-0.991,0.682-1.61,0.682h-4.583c-0.619,0-1.158-0.229-1.611-0.682
	c-0.452-0.451-0.68-0.99-0.68-1.609v-4.584c0-0.619,0.228-1.155,0.68-1.61c0.453-0.453,0.992-0.679,1.611-0.679h4.58
	c0.622,0,1.159,0.226,1.611,0.679c0.455,0.455,0.68,0.991,0.68,1.61V47.94z M26.319,34.194c0,0.621-0.225,1.156-0.678,1.611
	c-0.454,0.453-0.991,0.681-1.61,0.681h-4.583c-0.619,0-1.158-0.228-1.611-0.681c-0.452-0.455-0.68-0.99-0.68-1.611v-4.581
	c0-0.62,0.228-1.158,0.68-1.61c0.453-0.452,0.992-0.682,1.611-0.682h4.58c0.622,0,1.159,0.229,1.611,0.682
	c0.455,0.455,0.68,0.99,0.68,1.61V34.194z M26.319,20.448c0,0.62-0.225,1.157-0.678,1.612c-0.454,0.453-0.991,0.681-1.61,0.681
	h-4.583c-0.619,0-1.158-0.228-1.611-0.681c-0.452-0.455-0.68-0.992-0.68-1.612v-4.581c0-0.619,0.228-1.158,0.68-1.611
	c0.453-0.452,0.992-0.68,1.611-0.68h4.58c0.622,0,1.159,0.228,1.611,0.68c0.455,0.453,0.68,0.992,0.68,1.611V20.448z M76.722,61.685
	c0,0.623-0.229,1.158-0.682,1.611c-0.454,0.455-0.99,0.68-1.609,0.68h-4.582c-0.621,0-1.158-0.225-1.611-0.68
	c-0.452-0.453-0.68-0.988-0.68-1.611v-4.58c0-0.619,0.228-1.158,0.68-1.61c0.453-0.455,0.99-0.681,1.611-0.681h4.582
	c0.619,0,1.155,0.226,1.609,0.681c0.453,0.452,0.682,0.991,0.682,1.61V61.685z M76.722,47.94c0,0.619-0.229,1.158-0.682,1.609
	c-0.454,0.453-0.99,0.682-1.609,0.682h-4.582c-0.621,0-1.158-0.229-1.611-0.682c-0.452-0.451-0.68-0.99-0.68-1.609v-4.584
	c0-0.619,0.228-1.155,0.68-1.61c0.453-0.453,0.99-0.679,1.611-0.679h4.582c0.619,0,1.155,0.226,1.609,0.679
	c0.453,0.455,0.682,0.991,0.682,1.61V47.94z M76.722,34.194c0,0.621-0.229,1.156-0.682,1.611c-0.454,0.453-0.99,0.681-1.609,0.681
	h-4.582c-0.621,0-1.158-0.228-1.611-0.681c-0.452-0.455-0.68-0.99-0.68-1.611v-4.581c0-0.62,0.228-1.158,0.68-1.61
	c0.453-0.452,0.99-0.682,1.611-0.682h4.582c0.619,0,1.155,0.229,1.609,0.682c0.453,0.455,0.682,0.99,0.682,1.61V34.194z
	 M76.722,20.448c0,0.62-0.229,1.157-0.682,1.612c-0.454,0.453-0.99,0.681-1.609,0.681h-4.582c-0.621,0-1.158-0.228-1.611-0.681
	c-0.452-0.455-0.68-0.992-0.68-1.612v-4.581c0-0.619,0.228-1.158,0.68-1.611c0.453-0.452,0.99-0.68,1.611-0.68h4.582
	c0.619,0,1.155,0.228,1.609,0.68c0.453,0.453,0.682,0.992,0.682,1.611V20.448z"/>
</svg>
