<?xml version="1.0" encoding="utf-8"?>
<!-- Generator: Adobe Illustrator 15.1.0, SVG Export Plug-In . SVG Version: 6.00 Build 0)  -->
<!DOCTYPE svg PUBLIC "-//W3C//DTD SVG 1.1//EN" "http://www.w3.org/Graphics/SVG/1.1/DTD/svg11.dtd">
<svg version="1.1" id="圖層_1" xmlns="http://www.w3.org/2000/svg" xmlns:xlink="http://www.w3.org/1999/xlink" x="0px" y="0px"
	 width="93.877px" height="77.551px" viewBox="0 0 93.877 77.551" enable-background="new 0 0 93.877 77.551" xml:space="preserve">
<g>
	<path fill="#F7F8F8" d="M56.028,38.193l13.191,12.36c0.46,0.438,0.483,1.169,0.045,1.63c-0.226,0.241-0.528,0.359-0.844,0.359
		c-0.281,0-0.562-0.1-0.787-0.313L54.39,39.806c-0.034-0.032-0.062-0.069-0.09-0.104l-3.755,3.274
		c-1.17,1.023-2.699,1.535-4.229,1.535c-1.539,0-3.069-0.512-4.226-1.522l-3.76-3.281c-0.027,0.033-0.053,0.068-0.085,0.099
		L24.991,52.229c-0.225,0.214-0.508,0.313-0.785,0.313c-0.318,0-0.62-0.118-0.844-0.359c-0.441-0.461-0.417-1.191,0.042-1.63
		l13.191-12.36l-23.13-20.421c-0.171,0.408,0.019,0.855,0.019,1.324v39.247c0,1.911,0.983,3.432,2.883,3.432h59.89
		c1.911,0,4.228-1.521,4.228-3.432V19.097c0-0.468-0.482-0.915-0.651-1.321L56.028,38.193z"/>
	<path fill="#F7F8F8" d="M43.597,41.245c1.474,1.28,3.957,1.28,5.43,0l28.877-25.118c-0.489-0.265-1.051-0.352-1.647-0.352h-59.89
		c-0.591,0-1.147,0.086-1.637,0.351L43.597,41.245z"/>
</g>
</svg>
