<?xml version="1.0" encoding="utf-8"?>
<!-- Generator: Adobe Illustrator 15.1.0, SVG Export Plug-In . SVG Version: 6.00 Build 0)  -->
<!DOCTYPE svg PUBLIC "-//W3C//DTD SVG 1.1//EN" "http://www.w3.org/Graphics/SVG/1.1/DTD/svg11.dtd">
<svg version="1.1" id="圖層_1" xmlns="http://www.w3.org/2000/svg" xmlns:xlink="http://www.w3.org/1999/xlink" x="0px" y="0px"
	 width="283.465px" height="283.465px" viewBox="0 0 283.465 283.465" enable-background="new 0 0 283.465 283.465"
	 xml:space="preserve">
<path fill="#EFEFEF" d="M620.798,269.291c0,7.828-6.346,14.174-14.174,14.174H351.506c-7.827,0-14.173-6.346-14.173-14.174V14.174
	C337.333,6.346,343.679,0,351.506,0h255.118c7.828,0,14.174,6.346,14.174,14.174V269.291z"/>
<g>
	<path fill="#EFEFEF" d="M255.118,0H28.347C12.691,0,0,12.691,0,28.347v226.771c0,15.655,12.691,28.347,28.347,28.347h226.771
		c15.655,0,28.347-12.691,28.347-28.347V28.347C283.465,12.691,270.773,0,255.118,0z M250.265,130.006
		c-3.816,48.871-43.603,82.91-93.523,84.804c-5,26.686-33.375,42.32-59.621,42.32c-35.41,0-64.219-26.926-64.219-62.336v-66.527
		c0-57.679,46.762-101.933,104.434-101.933h13.206C208.189,26.334,254.76,72.542,250.265,130.006z"/>
	<path fill="#EFEFEF" d="M152.158,65.107h-15.223c-34.656,0-62.754,28.098-62.754,62.762v66.925c0,12.664,10.274,22.93,22.938,22.93
		c6.328,0,12.062-2.57,16.215-6.711c4.152-4.152,6.718-9.883,6.718-16.219v-15.431h32.106c31.551,0.001,57.129-25.575,57.129-57.128
		c0-15.777-6.395-30.055-16.738-40.398C182.213,71.502,167.937,65.107,152.158,65.107z M144.235,143.084h-25.856v-17.902
		c0-13.144,10.649-23.793,23.793-23.793h1.513c11.656,0,21.594,9.543,21.398,21.2C164.893,133.924,155.614,143.084,144.235,143.084z
		"/>
</g>
</svg>
